<?xml version="1.0" standalone="no"?>
<!DOCTYPE svg PUBLIC "-//W3C//DTD SVG 20010904//EN"
 "http://www.w3.org/TR/2001/REC-SVG-20010904/DTD/svg10.dtd">
<svg version="1.0" xmlns="http://www.w3.org/2000/svg"
 width="600.000000pt" height="600.000000pt" viewBox="0 0 600.000000 600.000000"
 preserveAspectRatio="xMidYMid meet">
<metadata>
Created by potrace 1.15, written by Peter Selinger 2001-2017
</metadata>
<g transform="translate(0.000000,600.000000) scale(0.100000,-0.100000)"
fill="#000000" stroke="none">
<path d="M4007 5682 c-25 -27 -21 -56 11 -74 15 -9 37 -27 49 -40 l23 -24 -22
-51 -21 -51 25 -54 c14 -29 29 -78 32 -108 l7 -55 -31 63 c-16 35 -30 70 -30
77 0 8 -7 18 -14 22 -10 6 -16 29 -18 73 l-3 65 -37 3 c-35 3 -38 0 -59 -39
-25 -51 -21 -112 12 -166 18 -29 21 -43 15 -91 -4 -31 -10 -78 -13 -104 -9
-73 -23 -46 -23 43 0 79 -12 116 -47 144 -23 19 -43 85 -43 143 0 56 -2 61
-34 86 -19 14 -41 26 -50 26 -50 0 -55 -291 -5 -361 10 -15 23 -56 28 -92 10
-70 43 -133 76 -141 11 -3 34 -6 52 -6 29 0 33 4 47 48 15 47 15 47 9 7 -3
-22 -11 -53 -18 -70 -10 -26 -16 -30 -51 -30 l-39 0 -3 -70 c-2 -58 0 -73 15
-85 10 -8 43 -64 73 -123 45 -88 58 -107 77 -107 31 0 48 34 34 68 -13 34 -61
199 -61 212 0 6 4 10 9 10 8 0 61 -109 61 -125 0 -4 11 -20 25 -37 14 -16 25
-35 25 -43 0 -26 109 -46 154 -29 21 8 21 50 0 62 -14 8 -14 10 0 21 16 14 21
56 10 85 -4 9 -23 19 -45 22 -21 4 -39 11 -39 16 0 5 -10 6 -22 3 -15 -4 -19
-3 -10 3 10 7 5 19 -22 51 -27 33 -36 52 -36 79 l1 37 17 -23 c64 -88 72 -93
121 -86 57 8 96 30 110 61 22 47 7 101 -23 90 -10 -4 -16 -1 -16 9 0 18 -41
36 -55 23 -5 -5 -18 -9 -28 -9 -16 0 -17 3 -7 15 11 13 8 16 -19 21 -36 7 -61
37 -61 72 0 20 2 22 23 11 12 -7 58 -25 102 -40 l80 -28 10 33 c6 18 25 46 43
61 17 15 32 34 32 43 0 25 -76 92 -103 92 -24 0 -47 -33 -47 -65 0 -8 -4 -15
-9 -15 -5 0 -7 28 -4 63 4 63 1 71 -42 133 -16 22 -20 44 -20 100 0 66 -3 75
-27 101 -16 16 -28 34 -28 40 0 28 -99 32 -123 5z"/>
<path d="M3455 5590 c-3 -5 -4 -54 -1 -109 3 -79 10 -111 31 -157 46 -102 116
-238 130 -254 10 -11 12 -35 8 -93 -6 -78 -6 -78 27 -112 35 -36 76 -51 110
-40 17 5 20 15 20 64 0 46 -4 62 -21 77 -27 25 -43 57 -58 119 -7 28 -21 65
-32 83 -30 51 -85 201 -99 267 -7 33 -24 83 -37 112 -20 42 -30 53 -49 53 -12
0 -26 -4 -29 -10z"/>
<path d="M4632 5503 c-31 -6 -45 -37 -50 -112 -5 -73 1 -81 64 -81 28 0 46 6
59 20 10 11 26 20 35 20 23 0 38 20 46 58 6 27 3 32 -19 37 -14 4 -31 4 -37 0
-14 -9 -52 4 -44 16 8 14 -6 49 -19 48 -7 -1 -22 -4 -35 -6z"/>
<path d="M3020 5430 c-6 -11 -18 -20 -26 -20 -20 0 -104 -69 -104 -85 0 -8
-14 -16 -30 -20 -17 -4 -35 -16 -42 -28 -11 -21 -12 -21 -20 10 -13 50 -78 57
-78 8 0 -13 -4 -27 -10 -30 -22 -14 -10 -44 21 -52 24 -7 34 -17 45 -48 16
-44 43 -151 51 -204 5 -33 50 -119 79 -152 8 -8 17 -44 20 -78 6 -54 11 -66
36 -84 17 -12 50 -51 75 -85 42 -59 47 -63 77 -58 19 3 44 -1 65 -12 28 -14
38 -29 59 -85 18 -49 32 -72 51 -82 38 -19 101 -107 108 -150 5 -29 10 -35 27
-33 15 2 22 12 26 38 4 19 11 43 17 54 8 14 11 3 16 -55 3 -40 10 -75 16 -78
5 -4 15 -29 22 -56 13 -57 31 -75 71 -75 l28 0 0 113 c0 61 4 117 8 122 4 6
37 10 74 10 37 0 72 5 78 11 20 20 0 64 -36 82 -19 9 -34 23 -34 33 0 22 -19
37 -54 41 -53 6 -43 28 13 28 39 0 63 -8 110 -35 68 -40 101 -45 101 -15 0 12
-12 26 -32 36 -18 9 -56 34 -84 55 -33 25 -61 39 -81 39 -25 0 -32 5 -39 32
-8 26 -17 34 -59 47 l-50 16 3 49 c1 27 4 51 6 54 7 6 166 -49 203 -70 47 -28
73 -17 72 30 -1 62 -10 72 -94 104 -44 17 -96 43 -116 59 -33 25 -39 26 -55
14 -11 -8 -37 -15 -60 -15 -50 0 -84 31 -83 76 0 16 3 23 6 17 8 -22 67 -15
92 11 19 21 22 30 16 70 -4 26 -13 46 -20 46 -6 0 -20 9 -30 20 -19 21 -79 28
-90 10 -3 -5 -19 -10 -35 -10 -23 0 -27 3 -23 20 3 11 18 30 34 41 31 22 39
49 14 49 -7 0 -18 6 -22 14 -9 16 -91 7 -167 -19 -24 -8 -51 -12 -60 -9 -13 5
-16 -1 -16 -29 0 -19 -6 -39 -12 -45 -10 -8 -14 1 -16 41 -3 48 -1 52 45 99
30 31 59 50 81 54 41 8 40 33 -2 52 -15 8 -36 27 -45 43 -9 16 -19 29 -22 29
-3 0 -23 14 -44 30 -44 35 -60 37 -75 10z m376 -810 c32 -28 55 -56 59 -74 4
-16 21 -51 37 -77 26 -44 29 -54 26 -126 -2 -62 -6 -78 -19 -81 -13 -2 -17 10
-21 70 -9 122 -32 182 -99 254 -88 95 -79 114 17 34z"/>
<path d="M2550 5261 c-8 -17 -15 -18 -42 -10 -18 5 -36 9 -40 9 -12 0 -38 -57
-38 -85 0 -15 -5 -35 -10 -46 -8 -13 -7 -25 0 -39 9 -16 8 -22 -5 -26 -10 -4
-13 -13 -10 -24 4 -12 -1 -22 -11 -28 -20 -11 -12 -59 10 -68 12 -4 9 -20 -11
-82 -14 -42 -32 -86 -40 -97 -7 -11 -13 -34 -13 -51 0 -19 -6 -34 -15 -38 -8
-3 -15 -14 -15 -25 0 -11 -4 -23 -10 -26 -19 -12 -11 -54 13 -66 33 -17 57
-50 57 -81 0 -16 9 -33 22 -42 26 -19 98 -22 98 -4 0 6 2 9 5 7 2 -3 -1 -21
-7 -41 -9 -32 -8 -41 12 -73 34 -55 73 -75 147 -75 34 0 65 5 68 10 21 34 114
-40 115 -92 0 -15 4 -29 9 -32 13 -8 20 -105 11 -159 -5 -34 -3 -50 7 -58 7
-6 13 -18 13 -25 0 -17 40 -27 85 -22 40 5 39 6 50 -90 9 -83 29 -112 115
-173 50 -34 83 -65 91 -84 14 -35 58 -85 74 -85 6 0 22 -13 36 -29 30 -34 74
-49 98 -34 13 8 15 25 13 76 -2 37 1 83 7 103 11 41 0 74 -24 74 -31 0 -48 76
-20 86 8 4 15 12 15 19 0 7 7 18 15 25 20 16 19 70 -1 135 -16 50 -19 52 -65
64 -41 11 -53 10 -83 -4 -30 -15 -41 -15 -66 -5 -16 7 -35 19 -42 28 -12 14
-10 14 10 3 22 -12 68 -8 102 9 8 4 27 13 43 19 31 12 34 33 11 76 -9 17 -25
47 -36 68 -10 20 -23 37 -27 37 -5 0 -23 13 -39 29 -32 33 -76 49 -86 32 -8
-13 -46 -15 -46 -3 0 16 36 42 68 48 19 4 34 14 38 26 15 48 -62 148 -115 148
-23 0 -30 5 -35 25 -10 41 -77 126 -108 140 -28 11 -29 15 -32 85 -3 65 -7 76
-29 96 -14 12 -35 45 -47 73 -12 27 -28 56 -36 62 -8 7 -14 30 -14 58 0 25 -7
59 -15 75 -8 15 -15 35 -15 42 0 8 -4 14 -9 14 -5 0 -14 13 -19 29 -8 22 -18
30 -45 35 -23 4 -38 14 -42 26 -4 11 -12 20 -19 20 -8 0 -19 7 -26 15 -17 21
-37 19 -50 -4z"/>
<path d="M4558 5253 c-9 -2 -33 -28 -53 -58 -26 -37 -47 -56 -65 -60 -16 -3
-31 -12 -34 -20 -2 -7 -15 -15 -28 -17 -26 -4 -26 -3 1 -78 11 -30 23 -76 26
-102 5 -38 10 -48 25 -48 10 0 21 4 25 10 3 5 32 21 64 35 50 23 60 32 69 63
13 42 6 82 -16 98 -23 17 -7 44 26 44 15 0 33 -5 38 -10 22 -22 44 1 44 47 0
41 -3 45 -34 58 -18 8 -36 21 -39 30 -6 15 -17 17 -49 8z"/>
<path d="M2260 4496 c-19 -13 -53 -26 -75 -30 -21 -4 -51 -16 -66 -27 -15 -10
-32 -19 -38 -19 -6 0 -18 -18 -27 -40 -9 -22 -20 -40 -25 -40 -14 0 -126 65
-139 81 -14 16 -73 18 -96 3 -21 -14 -24 -24 -24 -73 0 -42 7 -66 25 -96 13
-22 32 -54 40 -70 16 -29 59 -53 125 -70 14 -3 38 -11 55 -18 l29 -11 -24 -6
c-16 -4 -37 1 -58 13 -26 16 -38 17 -56 9 -13 -6 -27 -7 -32 -2 -5 4 -37 11
-70 15 -52 6 -62 4 -68 -10 -7 -19 46 -45 92 -45 20 0 32 -8 45 -30 10 -16 25
-30 33 -30 8 0 14 -4 14 -9 0 -18 31 -41 55 -41 23 0 50 -12 95 -42 14 -9 45
-22 70 -28 34 -9 52 -21 73 -50 27 -38 28 -39 85 -36 32 1 72 10 92 21 19 10
49 21 65 25 38 7 47 43 14 60 -16 9 -19 14 -8 20 7 5 21 3 33 -6 23 -16 156
-9 168 10 4 6 8 26 8 45 0 21 10 47 25 67 33 44 33 93 -1 133 -22 27 -32 31
-74 31 -41 0 -53 5 -87 38 -22 20 -55 61 -74 89 -19 29 -38 53 -42 53 -4 0
-22 10 -40 22 -18 13 -34 24 -36 25 -2 2 -3 23 -3 48 2 41 0 45 -20 44 -13 0
-39 -10 -58 -23z"/>
<path d="M1420 4291 c-80 -10 -210 -85 -210 -123 0 -25 34 -23 71 2 26 19 31
20 58 6 20 -11 44 -14 78 -10 38 5 52 3 62 -10 14 -17 76 -22 85 -7 3 5 16 7
27 4 19 -5 20 -3 14 18 -4 13 -15 30 -26 38 -10 7 -19 20 -19 27 0 8 -5 14
-11 14 -7 0 -22 11 -35 25 -13 14 -27 24 -31 24 -4 -1 -33 -5 -63 -8z"/>
<path d="M3570 3792 c0 -10 7 -28 16 -40 12 -17 14 -35 9 -67 -3 -25 -10 -47
-15 -50 -13 -8 0 -68 16 -78 32 -19 44 -40 42 -78 -2 -54 11 -64 56 -43 33 16
36 21 36 60 0 25 -6 47 -15 54 -8 7 -15 26 -15 42 0 35 -15 65 -48 96 -19 19
-23 29 -18 54 4 22 1 37 -10 50 -22 23 -54 24 -54 0z"/>
<path d="M2957 3543 c-14 -13 -7 -63 8 -63 8 0 15 -6 15 -14 0 -8 14 -28 30
-44 17 -17 30 -35 30 -41 0 -14 41 -51 57 -51 7 0 17 8 22 18 13 24 -21 119
-58 160 -25 29 -89 51 -104 35z"/>
<path d="M2850 3271 c0 -17 11 -42 25 -59 14 -17 25 -39 25 -50 0 -11 6 -22
13 -25 7 -2 12 -24 13 -58 1 -91 26 -232 46 -258 10 -13 18 -34 18 -47 0 -13
4 -24 9 -24 24 0 41 14 41 35 0 46 101 59 115 15 4 -13 15 -20 32 -20 23 0 25
3 20 30 -5 24 -3 30 11 30 32 0 61 -60 68 -139 6 -58 14 -85 41 -129 18 -31
33 -59 33 -63 0 -4 9 -10 19 -14 12 -3 21 -19 25 -39 8 -42 40 -54 76 -27 22
16 25 25 25 87 0 54 4 72 18 82 25 19 23 86 -3 110 l-21 19 33 13 c77 31 106
95 49 106 -39 8 -60 33 -68 79 -8 50 -45 89 -78 83 -19 -4 -31 1 -44 18 -11
14 -29 24 -44 24 -29 0 -71 34 -81 67 -4 11 -13 24 -21 27 -8 3 -15 12 -15 21
0 14 -10 15 -72 9 l-73 -6 -18 31 c-18 32 -29 36 -105 45 -24 2 -54 13 -65 24
-40 35 -47 35 -47 3z"/>
<path d="M3032 2581 c-23 -76 -17 -102 38 -154 43 -40 54 -46 78 -41 47 11 54
23 47 73 -15 107 -36 141 -87 141 -15 0 -28 5 -28 10 0 6 -8 10 -18 10 -13 0
-22 -12 -30 -39z"/>
<path d="M2730 1905 c-14 -7 -37 -16 -52 -20 -20 -4 -30 -13 -34 -33 -4 -15
-17 -41 -30 -59 -29 -39 -30 -55 -4 -78 24 -22 26 -35 5 -35 -37 0 -24 -63 15
-75 24 -8 26 -31 4 -43 -15 -8 -15 -12 0 -41 10 -17 28 -37 42 -43 16 -8 28
-25 35 -52 6 -23 20 -49 30 -59 10 -10 19 -23 19 -30 0 -7 12 -23 26 -36 17
-17 22 -26 13 -32 -7 -4 -9 -17 -5 -33 3 -14 1 -34 -5 -44 -14 -23 -4 -85 16
-102 8 -7 15 -28 15 -47 0 -40 26 -81 84 -133 68 -62 116 -111 116 -120 0 -5
9 -11 20 -15 14 -5 19 -14 18 -40 -1 -33 35 -93 57 -94 6 -1 15 -15 20 -33 12
-38 34 -48 42 -20 5 19 6 19 24 4 10 -9 19 -22 19 -29 0 -21 20 -15 51 16 25
25 29 37 29 85 0 43 -4 56 -17 60 -15 5 -17 16 -15 72 l4 67 -31 -5 c-34 -5
-38 2 -19 32 32 51 -40 70 -109 30 l-32 -19 -16 26 c-20 29 -9 43 34 43 14 0
35 10 49 23 13 12 44 29 70 37 35 11 48 21 50 37 3 17 -3 24 -23 29 -14 3 -34
4 -45 1 -11 -3 -21 1 -24 9 -3 8 -13 14 -22 14 -8 0 -14 6 -11 13 2 7 21 12
48 12 48 0 63 20 34 48 -8 9 -15 29 -15 45 0 34 -30 52 -90 52 -75 0 -57 47
21 57 24 3 52 12 62 21 23 21 22 59 -3 67 -21 7 -27 30 -10 40 15 9 12 55 -4
55 -8 0 -17 7 -20 16 -5 13 -19 15 -76 13 -60 -3 -71 -1 -84 16 -9 11 -16 28
-16 38 0 10 -12 22 -27 28 -34 13 -155 4 -183 -13 -15 -9 -22 -10 -31 -1 -14
14 81 107 129 125 62 23 29 60 -36 40 -55 -17 -60 2 -8 28 53 25 60 33 51 59
-12 39 -105 55 -155 26z"/>
</g>
</svg>
